:FULLY-SPECIFIED
:FORCE-ALL-JOINTS-BE-3DOF
:DEGREES
1835
root 6.86761 13.8737 27.7416 1059.45 52.1495 337.532
lfemur -53.2987 29.128 2.17283
ltibia 68.1542 -0 0
lfoot -6.71647 -8.97051 -0.00244623
ltoes -23.9945 0 0
rfemur 3.26017 -3.90912 17.5896
rtibia 49.4453 -0 0
rfoot -26.8381 -30.6273 0.00103526
rtoes -25.8338 0 0
lowerback 13.7427 4.43593 5.62023
upperback -0.312529 7.34415 5.20438
thorax -8.04566 3.49013 0.910025
lowerneck -4.6131 8.74364 2.66229
upperneck 8.41253 11.6483 -0.965962
head 3.78303 5.82273 -0.205231
lclavicle -1.64137e-14 -5.6107e-14 0
lhumerus 61.929 18.1819 106.617
lradius 9.66437 0 0
lwrist -84.1273 0 0
lhand -31.5594 42.3739 0
lfingers 7.12502 0 0
lthumb -4.82332 72.299 0
rclavicle -1.64137e-14 -5.6107e-14 0
rhumerus -71.4964 13.267 -79.656
rradius 126.51 0 0
rwrist -157.336 0 0
rhand -74.5277 -378.17 0
rfingers 7.12502 0 0
rthumb -45.8347 318.667 0
1836
root 6.90143 13.8723 27.7502 1059.49 52.1689 337.362
lfemur -53.5072 29.3221 2.08383
ltibia 68.4786 -0 0
lfoot -6.82785 -8.94055 -0.00291222
ltoes -24.0988 0 0
rfemur 3.43054 -3.94498 17.5607
rtibia 48.9831 -0 0
rfoot -26.8196 -30.5908 0.00111173
rtoes -26.2609 0 0
lowerback 13.7539 4.46734 5.71752
upperback -0.376067 7.40932 5.21091
thorax -8.10947 3.51522 0.848001
lowerneck -4.44722 9.07827 2.99496
upperneck 8.29951 12.1068 -1.32359
head 3.77306 6.0463 -0.358745
lclavicle 1.19504e-14 2.35063e-14 0
lhumerus 62.0343 18.2853 106.981
lradius 9.79001 0 0
lwrist -84.814 0 0
lhand -31.5425 42.3151 0
lfingers 7.12502 0 0
lthumb -4.80697 72.2406 0
rclavicle 1.19504e-14 2.35063e-14 0
rhumerus -71.7613 13.1583 -80.0244
rradius 126.55 0 0
rwrist -154.561 0 0
rhand -73.3073 -389.11 0
rfingers 7.12502 0 0
rthumb -44.7001 307.273 0
1837
root 6.93532 13.8741 27.7652 1059.64 52.2104 337.374
lfemur -53.7164 29.5159 1.99385
ltibia 68.803 -0 0
lfoot -6.93923 -8.91059 -0.00331998
ltoes -24.2032 0 0
rfemur 3.60094 -3.98076 17.5317
rtibia 48.521 -0 0
rfoot -26.8012 -30.5542 0.00117643
rtoes -26.6881 0 0
lowerback 13.7589 4.5533 5.70455
upperback -0.428659 7.52225 5.17295
thorax -8.16406 3.56668 0.790352
lowerneck -4.20918 9.43602 3.3133
upperneck 8.09428 12.5962 -1.66263
head 3.71913 6.28656 -0.508476
lclavicle -3.79213e-14 -4.56087e-14 0
lhumerus 62.1635 18.1734 107.415
lradius 9.82434 0 0
lwrist -85.5637 0 0
lhand -31.7605 41.2615 0
lfingers 7.12502 0 0
lthumb -5.01749 71.1821 0
rclavicle -3.79213e-14 -4.56087e-14 0
rhumerus -72.077 12.9088 -80.3614
rradius 126.571 0 0
rwrist -151.8 0 0
rhand -71.8273 -396.985 0
rfingers 7.12502 0 0
rthumb -43.3195 298.883 0
1838
root 6.96314 13.8698 27.7648 1059.77 52.2613 337.314
lfemur -53.9264 29.7095 1.90288
ltibia 69.1274 -0 0
lfoot -7.05061 -8.88062 -0.0036695
ltoes -24.3075 0 0
rfemur 3.77136 -4.01644 17.5026
rtibia 48.0589 -0 0
rfoot -26.7827 -30.5177 0.00122937
rtoes -27.1153 0 0
lowerback 13.8357 4.57918 5.8176
upperback -0.486375 7.58529 5.15208
thorax -8.25247 3.58771 0.685735
lowerneck -3.99529 9.86151 3.6036
upperneck 7.8791 13.183 -2.05905
head 3.67642 6.57219 -0.6649
lclavicle -2.07839e-14 -3.04389e-14 0
lhumerus 62.3714 18.153 107.889
lradius 9.88081 0 0
lwrist -86.3648 0 0
lhand -31.2963 41.5387 0
lfingers 7.12502 0 0
lthumb -4.56922 71.4694 0
rclavicle -2.07839e-14 -3.04389e-14 0
rhumerus -72.2905 12.6381 -80.5805
rradius 126.516 0 0
rwrist -149.399 0 0
rhand -70.339 -402.132 0
rfingers 7.12502 0 0
rthumb -41.9267 293.253 0
1839
root 6.99258 13.871 27.7785 1059.89 52.344 337.306
lfemur -54.1371 29.9027 1.81092
ltibia 69.4517 -0 0
lfoot -7.16199 -8.85066 -0.00396077
ltoes -24.4118 0 0
rfemur 3.9418 -4.05204 17.4734
rtibia 47.5968 0 0
rfoot -26.7643 -30.4811 0.00127055
rtoes -27.5425 0 0
lowerback 13.8046 4.6516 5.81218
upperback -0.490953 7.67613 5.134
thorax -8.23616 3.63188 0.654204
lowerneck -3.75778 10.2592 3.82792
upperneck 7.56455 13.7303 -2.41243
head 3.58866 6.83912 -0.803596
lclavicle -3.2697e-14 -1.46604e-15 0
lhumerus 62.6506 17.8746 108.477
lradius 9.81021 0 0
lwrist -86.9644 0 0
lhand -31.2842 40.884 0
lfingers 7.12502 0 0
lthumb -4.55754 70.8149 0
rclavicle -3.2697e-14 -1.46604e-15 0
rhumerus -72.5667 12.497 -81.0248
rradius 126.497 0 0
rwrist -146.555 0 0
rhand -68.6246 -406.04 0
rfingers 7.12502 0 0
rthumb -40.3169 288.83 0
1840
root 7.01257 13.8631 27.7881 1059.83 52.3936 337.041
lfemur -54.3486 30.0957 1.71796
ltibia 69.7761 -0 0
lfoot -7.27338 -8.82069 -0.00419379
ltoes -24.5161 0 0
rfemur 4.11226 -4.08755 17.444
rtibia 47.5039 -0 0
rfoot -26.7458 -30.4446 0.00129996
rtoes -27.9697 0 0
lowerback 13.8542 4.69859 5.96041
upperback -0.532127 7.77334 5.14591
thorax -8.29048 3.67058 0.561385
lowerneck -3.55389 10.6759 4.12353
upperneck 7.33646 14.3037 -2.80322
head 3.55277 7.11972 -0.958493
lclavicle -4.21082e-14 5.93869e-15 0
lhumerus 62.9503 17.5606 109.064
lradius 9.71011 0 0
lwrist -87.3917 0 0
lhand -31.1923 40.7428 0
lfingers 7.12502 0 0
lthumb -4.46882 70.6756 0
rclavicle -4.21082e-14 5.93869e-15 0
rhumerus -72.8035 12.4068 -81.496
rradius 126.453 0 0
rwrist -143.817 0 0
rhand -66.7687 -409.534 0
rfingers 7.12502 0 0
rthumb -38.5687 284.823 0
1841
root 7.03579 13.8583 27.8035 1059.92 52.4662 337.001
lfemur -54.4762 30.0175 1.72051
ltibia 70.1005 -0 0
lfoot -7.38476 -8.79073 -0.00436856
ltoes -24.6204 0 0
rfemur 4.28274 -4.12297 17.4146
rtibia 47.411 -0 0
rfoot -26.7274 -30.408 0.00131761
rtoes -28.3969 0 0
lowerback 13.851 4.76495 5.95738
upperback -0.548253 7.85945 5.12104
thorax -8.30109 3.71091 0.519447
lowerneck -3.31208 11.0897 4.37596
upperneck 7.11322 14.8725 -3.12608
head 3.50572 7.40044 -1.08718
lclavicle -1.30639e-14 -5.86415e-15 0
lhumerus 62.8559 17.9328 109.247
lradius 10.0617 0 0
lwrist -87.5865 0 0
lhand -31.5912 40.9667 0
lfingers 7.12502 0 0
lthumb -4.85406 70.8911 0
rclavicle -1.30639e-14 -5.86415e-15 0
rhumerus -73.0361 12.3194 -81.9173
rradius 126.401 0 0
rwrist -141.448 0 0
rhand -65.2219 -411.285 0
rfingers 7.12502 0 0
rthumb -37.1075 282.678 0
1842
root 7.05387 13.8495 27.8167 1059.84 52.509 336.752
lfemur -54.6036 29.9393 1.72325
ltibia 70.4249 -0 0
lfoot -7.49615 -8.76076 -0.00448507
ltoes -24.7247 0 0
rfemur 4.45323 -4.1583 17.3851
rtibia 47.3181 -0 0
rfoot -26.7089 -30.3715 0.00132349
rtoes -28.8241 0 0
lowerback 13.8824 4.8427 6.12938
upperback -0.572124 7.99617 5.11497
thorax -8.31852 3.76838 0.389456
lowerneck -3.16149 11.436 4.52799
upperneck 6.93559 15.3481 -3.36991
head 3.47416 7.63416 -1.17371
lclavicle 2.30466e-14 -1.73937e-16 0
lhumerus 62.5216 17.0236 108.098
lradius 10.0802 0 0
lwrist -86.3302 0 0
lhand -31.7798 40.8927 0
lfingers 7.12502 0 0
lthumb -5.03616 70.8128 0
rclavicle 2.30466e-14 -1.73937e-16 0
rhumerus -73.2739 12.1139 -82.4128
rradius 126.349 0 0
rwrist -138.789 0 0
rhand -63.4891 -413.18 0
rfingers 7.12502 0 0
rthumb -35.4668 280.375 0
1843
root 7.07069 13.8396 27.8276 1059.84 52.5896 336.581
lfemur -54.731 29.8611 1.7262
ltibia 70.7492 -0 0
lfoot -7.60753 -8.73079 -0.00454333
ltoes -24.8291 0 0
rfemur 4.62374 -4.19355 17.3554
rtibia 47.2252 -0 0
rfoot -26.6905 -30.335 0.00131761
rtoes -29.2512 0 0
lowerback 13.9259 4.89383 6.26377
upperback -0.615112 8.09056 5.07773
thorax -8.36415 3.80434 0.253318
lowerneck -2.99844 11.767 4.75765
upperneck 6.81045 15.8038 -3.63549
head 3.46989 7.85955 -1.27866
lclavicle -3.98998e-14 -8.00854e-14 0
lhumerus 62.9037 16.7425 108.985
lradius 9.93619 0 0
lwrist -87.3062 0 0
lhand -31.2011 41.2953 0
lfingers 7.12502 0 0
lthumb -4.47736 71.228 0
rclavicle -3.98998e-14 -8.00854e-14 0
rhumerus -73.4933 12.0235 -82.8218
rradius 126.293 0 0
rwrist -136.464 0 0
rhand -61.9393 -414.382 0
rfingers 7.12502 0 0
rthumb -33.996 278.834 0
1844
root 7.09094 13.8355 27.8427 1060.05 52.7535 336.729
lfemur -54.8583 29.7829 1.72934
ltibia 71.0736 -0 0
lfoot -7.71892 -8.70083 -0.00454333
ltoes -24.9334 0 0
rfemur 4.79427 -4.2287 17.3257
rtibia 47.1322 -0 0
rfoot -26.6721 -30.2984 0.00129996
rtoes -29.6784 0 0
lowerback 13.9066 4.96888 6.19428
upperback -0.626675 8.1661 4.97934
thorax -8.35725 3.84026 0.17351
lowerneck -2.83295 12.0565 4.99763
upperneck 6.68938 16.2024 -3.88242
head 3.46557 8.05774 -1.38241
lclavicle -4.3686e-14 -1.17283e-14 0
lhumerus 63.0507 16.8157 109.652
lradius 10.0513 0 0
lwrist -88.3439 0 0
lhand -31.3537 40.7944 0
lfingers 7.12502 0 0
lthumb -4.62472 70.7239 0
rclavicle -4.3686e-14 -1.17283e-14 0
rhumerus -73.6667 11.782 -83.2745
rradius 126.233 0 0
rwrist -134.014 0 0
rhand -60.3931 -415.72 0
rfingers 7.12502 0 0
rthumb -32.526 277.181 0
1845
root 7.10641 13.8272 27.8577 1059.98 52.8299 336.541
lfemur -54.9855 29.7048 1.73268
ltibia 71.398 0 0
lfoot -7.8303 -8.67086 -0.00448507
ltoes -25.0377 0 0
rfemur 4.86058 -4.28886 17.3439
rtibia 47.0393 -0 0
rfoot -26.6536 -30.2619 0.00127055
rtoes -30.1056 0 0
lowerback 13.9428 5.01785 6.30166
upperback -0.627668 8.25324 4.98049
thorax -8.36207 3.87744 0.096428
lowerneck -2.71491 12.3154 5.07414
upperneck 6.58945 16.5617 -4.05769
head 3.45329 8.23437 -1.43738
lclavicle 4.6059e-14 -5.14355e-15 0
lhumerus 62.1484 15.2483 106.583
lradius 10.2172 0 0
lwrist -85.2705 0 0
lhand -31.2817 40.631 0
lfingers 7.12502 0 0
lthumb -4.55514 70.562 0
rclavicle 4.6059e-14 -5.14355e-15 0
rhumerus -73.8186 11.6986 -83.6607
rradius 126.177 0 0
rwrist -131.55 0 0
rhand -58.7911 -416.828 0
rfingers 7.12502 0 0
rthumb -31.0003 275.771 0
1846
root 7.12223 13.8195 27.8725 1059.81 52.9056 336.299
lfemur -55.1126 29.6266 1.73622
ltibia 71.5023 -0 0
lfoot -7.94169 -8.64089 -0.00436856
ltoes -25.142 0 0
rfemur 4.92689 -4.34905 17.3621
rtibia 46.9464 -0 0
rfoot -26.6352 -30.2253 0.00122937
rtoes -30.5328 0 0
lowerback 14.0252 5.05197 6.49402
upperback -0.649853 8.3384 4.9551
thorax -8.40004 3.90704 -0.0593166
lowerneck -2.56773 12.5399 5.20553
upperneck 6.54827 16.8724 -4.18184
head 3.45479 8.39011 -1.48748
lclavicle -3.42476e-14 -4.98701e-14 0
lhumerus 62.9545 15.9393 109.291
lradius 10.0677 0 0
lwrist -87.9781 0 0
lhand -31.0917 40.7691 0
lfingers 7.12502 0 0
lthumb -4.37172 70.704 0
rclavicle -3.42476e-14 -4.98701e-14 0
rhumerus -73.9966 11.624 -84.064
rradius 126.097 0 0
rwrist -129.23 0 0
rhand -57.3021 -417.593 0
rfingers 7.12502 0 0
rthumb -29.5799 274.744 0
1847
root 7.14038 13.8111 27.8871 1059.8 53.0468 336.267
lfemur -55.2396 29.5484 1.73995
ltibia 71.6065 -0 0
lfoot -8.05307 -8.61093 -0.00419379
ltoes -25.2463 0 0
rfemur 4.99317 -4.40926 17.3802
rtibia 46.8535 -0 0
rfoot -26.6167 -30.1888 0.00117643
rtoes -30.5498 0 0
lowerback 14.0357 5.04735 6.4916
upperback -0.621473 8.32886 4.94195
thorax -8.37337 3.90348 -0.0697426
lowerneck -2.41676 12.787 5.39823
upperneck 6.51466 17.2225 -4.43587
head 3.48252 8.5631 -1.58433
lclavicle -3.09064e-14 -6.56983e-14 0
lhumerus 62.1656 14.6073 106.505
lradius 10.261 0 0
lwrist -84.7641 0 0
lhand -31.142 40.9048 0
lfingers 7.12502 0 0
lthumb -4.42029 70.8387 0
rclavicle -3.09064e-14 -6.56983e-14 0
rhumerus -74.0837 11.6693 -84.4136
rradius 126 0 0
rwrist -126.907 0 0
rhand -55.6387 -418.62 0
rfingers 7.12502 0 0
rthumb -27.9909 273.447 0
